<?xml version="1.0" encoding="UTF-8"?>
<svg width="40" height="40" viewBox="0 0 40 40" fill="none" xmlns="http://www.w3.org/2000/svg">
    <!-- Fond du logo avec effet de dégradé -->
    <rect width="40" height="40" rx="10" fill="#2E8B57"/>
    <rect width="40" height="40" rx="10" fill="url(#gradient)" fill-opacity="0.1"/>
    
    <!-- Lettre B stylisée avec ombre -->
    <g filter="url(#shadow)">
        <path d="M10 10h10c2.8 0 5 2.2 5 5s-2.2 5-5 5h-5v5h5c2.8 0 5 2.2 5 5s-2.2 5-5 5H10V10z" fill="#FFD700"/>
    </g>
    
    <!-- Étoile avec effet de brillance -->
    <g filter="url(#glow)">
        <path d="M30 10l2.5 5h5l-3.75 2.5 1.25 5-3.75-2.5-3.75 2.5 1.25-5-3.75-2.5h5z" fill="#FFD700"/>
    </g>

    <!-- Définitions des effets -->
    <defs>
        <!-- Dégradé pour le fond -->
        <linearGradient id="gradient" x1="0" y1="0" x2="40" y2="40" gradientUnits="userSpaceOnUse">
            <stop offset="0" stop-color="#2B3A67"/>
            <stop offset="1" stop-color="#2E8B57"/>
        </linearGradient>
        
        <!-- Ombre pour la lettre B -->
        <filter id="shadow" x="8" y="8" width="24" height="24" filterUnits="userSpaceOnUse" color-interpolation-filters="sRGB">
            <feFlood flood-opacity="0" result="BackgroundImageFix"/>
            <feColorMatrix in="SourceAlpha" type="matrix" values="0 0 0 0 0 0 0 0 0 0 0 0 0 0 0 0 0 0 127 0"/>
            <feOffset dy="2"/>
            <feGaussianBlur stdDeviation="1"/>
            <feColorMatrix type="matrix" values="0 0 0 0 0 0 0 0 0 0 0 0 0 0 0 0 0 0 0.25 0"/>
            <feBlend mode="normal" in2="BackgroundImageFix" result="effect1_dropShadow"/>
            <feBlend mode="normal" in="SourceGraphic" in2="effect1_dropShadow" result="shape"/>
        </filter>
        
        <!-- Effet de brillance pour l'étoile -->
        <filter id="glow" x="28" y="8" width="12" height="12" filterUnits="userSpaceOnUse" color-interpolation-filters="sRGB">
            <feFlood flood-opacity="0" result="BackgroundImageFix"/>
            <feColorMatrix in="SourceAlpha" type="matrix" values="0 0 0 0 0 0 0 0 0 0 0 0 0 0 0 0 0 0 127 0"/>
            <feOffset dy="1"/>
            <feGaussianBlur stdDeviation="1"/>
            <feColorMatrix type="matrix" values="0 0 0 0 1 0 0 0 0 0.843 0 0 0 0 0 0 0 0 0.5 0"/>
            <feBlend mode="normal" in2="BackgroundImageFix" result="effect1_dropShadow"/>
            <feBlend mode="normal" in="SourceGraphic" in2="effect1_dropShadow" result="shape"/>
        </filter>
    </defs>
</svg> 